<?xml version="1.0" standalone="no"?>
<!DOCTYPE svg PUBLIC "-//W3C//DTD SVG 20010904//EN"
 "http://www.w3.org/TR/2001/REC-SVG-20010904/DTD/svg10.dtd">
<svg version="1.0" xmlns="http://www.w3.org/2000/svg"
 width="840.000000pt" height="840.000000pt" viewBox="0 0 840.000000 840.000000"
 preserveAspectRatio="xMidYMid meet">
<metadata>
Created by potrace 1.11, written by Peter Selinger 2001-2013
</metadata>
<g transform="translate(0.000000,840.000000) scale(0.100000,-0.100000)"
fill="#000000" stroke="none">
<path d="M2167 6664 c2 -6 -1 -15 -7 -19 -8 -5 -8 -11 -1 -19 8 -10 5 -18 -9
-31 -16 -14 -17 -20 -8 -27 10 -6 10 -8 -1 -8 -11 0 -11 -3 -1 -15 10 -12 10
-15 -3 -15 -10 0 -15 -7 -12 -20 2 -11 0 -20 -6 -20 -5 0 -9 -13 -9 -30 0 -16
-4 -30 -9 -30 -4 0 -6 -12 -3 -26 3 -15 1 -24 -4 -21 -5 3 -8 -11 -8 -31 1
-21 -3 -43 -8 -49 -7 -9 -7 -13 2 -13 9 0 9 -4 2 -13 -6 -7 -12 -34 -13 -60
-2 -26 -6 -47 -10 -47 -4 0 -6 -9 -4 -20 2 -11 -1 -20 -6 -20 -6 0 -6 -7 1
-19 7 -13 7 -22 0 -26 -7 -4 -7 -13 0 -26 8 -13 7 -19 0 -19 -6 0 -8 -5 -4
-11 4 -7 7 -31 7 -55 0 -24 4 -44 9 -44 5 0 6 -5 3 -10 -4 -6 0 -21 8 -34 10
-15 12 -27 5 -39 -5 -10 -5 -17 0 -17 5 0 12 -9 15 -20 3 -11 0 -20 -5 -20 -7
0 -6 -5 1 -13 6 -8 8 -17 4 -20 -3 -4 -1 -7 7 -7 9 0 10 -3 1 -14 -9 -11 -9
-15 0 -18 7 -2 5 -9 -7 -18 -16 -13 -17 -13 -9 0 8 13 7 13 -9 1 -10 -9 -20
-11 -24 -5 -7 10 -68 12 -77 2 -3 -3 2 -11 12 -19 11 -9 14 -10 9 -1 -13 21 9
13 33 -12 14 -15 20 -30 16 -37 -5 -8 -4 -10 3 -5 7 4 12 1 12 -9 0 -9 5 -13
10 -10 6 4 5 -5 -2 -20 -6 -14 -14 -22 -17 -17 -9 13 -73 -7 -68 -21 3 -7 8
-11 13 -10 5 1 10 -10 11 -24 0 -16 -2 -21 -7 -13 -6 9 -9 9 -15 0 -4 -6 -14
-9 -22 -5 -13 4 -14 3 -3 -10 7 -8 16 -13 20 -10 5 3 15 -1 23 -9 8 -8 17 -12
21 -9 3 4 6 1 6 -6 0 -7 5 -9 10 -6 6 3 10 2 10 -3 0 -5 9 -12 20 -15 21 -5
28 -27 9 -27 -5 0 -7 -4 -4 -10 3 -5 1 -10 -5 -10 -6 0 -13 -8 -17 -17 -3 -10
-15 -29 -27 -42 -13 -15 -15 -21 -6 -17 8 4 6 0 -4 -8 -11 -9 -16 -16 -12 -16
4 0 -7 -15 -24 -32 -33 -35 -53 -89 -37 -99 5 -4 5 -14 -1 -25 -7 -14 -6 -25
4 -39 12 -16 14 -17 14 -2 0 9 5 17 11 17 5 0 7 5 4 10 -8 13 18 8 27 -5 4 -5
2 -13 -5 -17 -9 -6 -9 -10 0 -16 9 -6 8 -14 -6 -35 -9 -15 -22 -24 -26 -20 -5
5 -4 1 3 -9 7 -9 9 -19 4 -22 -5 -3 -7 -19 -4 -35 2 -17 8 -28 13 -25 5 3 9 0
9 -6 0 -6 5 -8 10 -5 6 3 10 1 10 -5 0 -6 4 -8 10 -5 6 3 7 -1 4 -10 -4 -9 -9
-13 -12 -10 -3 2 -21 -7 -40 -22 -20 -15 -32 -21 -27 -13 5 9 4 11 -3 6 -7 -4
-12 -17 -12 -30 0 -12 -5 -27 -12 -34 -9 -9 -9 -12 1 -12 11 0 11 -3 1 -15 -9
-11 -9 -15 -1 -15 8 0 9 -5 1 -19 -7 -14 -7 -22 0 -26 8 -5 7 -11 -1 -21 -9
-11 -9 -14 1 -14 10 0 10 -3 0 -15 -10 -12 -10 -15 0 -15 10 0 10 -3 0 -15
-10 -12 -10 -15 0 -15 10 0 10 -3 0 -15 -10 -12 -10 -15 0 -15 8 0 10 -3 7 -6
-3 -4 -2 -15 4 -25 7 -14 6 -19 -2 -19 -8 0 -7 -6 3 -17 9 -10 19 -28 23 -41
4 -13 9 -21 12 -18 3 3 14 1 25 -5 18 -10 21 -49 6 -65 -4 -3 4 -18 18 -32 13
-15 24 -30 24 -34 0 -5 6 -8 14 -8 10 0 13 -9 11 -30 -2 -16 0 -32 6 -35 5 -4
7 -11 4 -16 -4 -5 -1 -9 6 -9 8 0 9 -3 0 -13 -6 -8 -7 -18 -3 -22 4 -5 1 -5
-5 -1 -8 4 -13 2 -13 -6 0 -9 -3 -9 -10 2 -9 13 -14 7 -11 -12 0 -5 -6 -8 -14
-8 -8 0 -15 -3 -15 -7 1 -11 27 -44 34 -44 18 2 23 0 23 -13 0 -8 -13 -20 -29
-27 -15 -6 -26 -14 -25 -18 7 -14 -41 -46 -68 -46 -33 0 -69 -25 -47 -33 6 -2
12 -11 12 -20 0 -15 2 -15 10 -2 9 13 10 13 10 0 0 -15 55 -55 76 -55 6 0 19
-9 29 -19 16 -15 17 -21 5 -39 -9 -15 -10 -22 -1 -25 15 -5 14 -43 -2 -62 -7
-8 -24 -21 -39 -29 -15 -8 -25 -18 -22 -23 3 -5 2 -8 -3 -7 -4 1 -16 1 -27 0
-16 -1 -17 -3 -5 -18 10 -11 10 -14 2 -9 -8 4 -13 2 -13 -5 0 -7 8 -9 21 -6
12 3 22 0 26 -9 4 -10 10 -11 24 -3 14 7 19 6 19 -2 0 -8 5 -8 16 1 8 8 14 9
13 4 -3 -18 1 -34 9 -33 20 3 30 -3 35 -21 3 -11 1 -20 -4 -20 -6 0 -6 -7 -1
-17 5 -10 7 -24 5 -30 -3 -7 0 -13 6 -13 7 0 11 -25 11 -65 0 -39 4 -65 11
-65 5 0 8 -4 4 -9 -3 -5 -1 -12 4 -16 14 -8 2 -36 -27 -63 l-25 -24 26 -17
c22 -14 24 -20 14 -31 -7 -8 -8 -10 -1 -7 7 4 15 0 18 -9 3 -8 2 -13 -3 -10
-5 3 3 -17 17 -45 24 -46 25 -52 11 -62 -15 -11 -19 -18 -19 -34 0 -5 -5 -1
-10 7 -8 13 -10 12 -10 -3 0 -10 -5 -15 -10 -12 -6 3 -17 0 -25 -9 -11 -11
-12 -16 -2 -19 6 -3 2 -6 -10 -6 -12 -1 -29 -9 -39 -18 -10 -10 -21 -18 -26
-18 -5 0 -12 -5 -16 -11 -4 -6 -15 -13 -25 -17 -10 -4 -15 -12 -12 -17 4 -6 1
-9 -7 -8 -15 4 -22 -63 -7 -73 5 -3 7 -13 3 -22 -3 -9 -10 -15 -14 -12 -11 7
-20 -32 -20 -87 0 -27 5 -48 11 -48 5 0 8 -4 4 -9 -3 -6 3 -14 12 -20 10 -6
14 -11 8 -11 -11 0 16 -20 28 -20 5 0 5 5 1 12 -5 7 -3 8 5 3 7 -4 11 -16 8
-26 -3 -11 -2 -17 3 -14 4 3 13 -2 20 -10 7 -8 25 -15 41 -15 22 0 30 -6 35
-25 3 -13 12 -29 20 -36 8 -6 11 -16 7 -23 -5 -8 -3 -8 8 0 8 6 22 10 32 8 11
-1 17 2 14 10 -3 7 4 13 16 13 11 1 24 8 28 15 5 7 9 9 9 3 0 -5 5 -4 12 3 7
7 19 12 28 12 23 0 80 29 80 41 0 6 3 8 8 6 9 -6 33 18 26 27 -2 3 -1 4 2 1
10 -7 74 46 74 61 0 8 7 14 15 14 9 0 12 6 9 15 -4 8 1 17 9 21 9 3 13 12 11
19 -3 7 0 16 5 20 6 3 9 11 6 16 -4 5 0 9 7 9 9 0 9 3 -2 10 -10 6 -11 10 -3
10 10 0 10 6 2 24 -7 15 -17 22 -26 19 -11 -4 -12 -1 -2 19 6 14 17 25 24 25
8 0 12 -4 9 -9 -7 -11 48 -7 64 5 8 6 12 5 12 -4 0 -12 2 -12 9 -1 6 11 10 10
15 -5 5 -13 0 -24 -18 -38 -14 -12 -26 -25 -26 -30 0 -6 5 -3 10 5 7 11 10 11
10 2 0 -7 4 -10 10 -7 5 3 19 1 31 -6 15 -8 19 -8 15 0 -4 6 -1 11 8 11 8 0
22 7 30 16 9 8 16 11 16 5 0 -6 6 -8 14 -5 8 3 20 -3 27 -14 11 -17 15 -18 37
-6 14 7 29 11 34 8 4 -3 17 0 28 6 11 6 20 7 20 2 0 -4 9 -8 20 -8 11 0 20 3
20 6 0 3 11 5 25 5 14 0 25 -3 25 -7 0 -11 23 -5 32 7 5 6 8 5 8 -3 0 -7 5
-10 10 -7 6 3 10 -1 10 -10 0 -10 5 -13 12 -9 6 4 8 3 5 -4 -4 -5 -4 -18 -1
-27 5 -13 8 -14 15 -3 7 11 9 11 9 -1 0 -10 3 -11 13 -2 8 6 17 8 20 4 4 -3 7
-1 7 6 0 7 4 10 8 7 4 -2 14 -1 22 4 10 6 21 3 32 -7 12 -10 18 -12 18 -4 0 9
5 9 20 1 11 -6 20 -7 20 -2 0 5 14 7 30 4 29 -4 31 -7 29 -46 -2 -23 1 -48 5
-54 4 -7 2 -12 -5 -12 -7 0 -4 -7 7 -16 10 -8 12 -12 4 -8 -8 4 1 -9 19 -29
19 -21 29 -37 22 -37 -11 0 -11 -3 -1 -15 7 -8 9 -15 5 -15 -4 0 -2 -7 5 -15
7 -8 16 -13 19 -10 4 2 8 -2 8 -10 0 -8 -3 -15 -6 -15 -3 0 -5 -45 -4 -100 1
-68 -2 -100 -9 -100 -6 0 -8 -3 -5 -6 4 -4 -3 -15 -15 -25 -12 -11 -16 -19 -8
-19 8 0 4 -8 -9 -19 -12 -11 -22 -23 -23 -28 0 -4 -4 -7 -9 -6 -4 2 -6 -4 -3
-12 4 -10 0 -15 -11 -15 -9 0 -14 -3 -11 -8 2 -4 -2 -16 -10 -27 -8 -10 -14
-16 -14 -12 0 5 -6 2 -14 -5 -8 -7 -12 -16 -10 -20 2 -4 -4 -9 -14 -12 -11 -4
-24 -18 -30 -31 -6 -14 -16 -25 -22 -25 -6 0 -8 -5 -5 -11 10 -15 14 -59 6
-59 -4 0 -4 -21 -1 -47 4 -40 10 -50 35 -63 16 -8 36 -22 43 -30 7 -8 11 -10
8 -4 -6 13 18 27 28 17 3 -4 6 -19 6 -35 0 -17 4 -27 10 -23 6 3 10 2 10 -4 0
-14 52 -39 68 -34 6 3 12 -1 12 -7 0 -10 3 -10 14 -1 9 8 13 32 12 76 -1 38 3
65 9 65 5 0 3 5 -5 10 -8 5 -10 10 -5 10 25 0 40 -29 23 -46 -4 -4 -3 -13 3
-21 6 -7 8 -13 3 -13 -5 0 -9 -11 -9 -25 0 -14 5 -25 10 -25 6 0 3 -5 -5 -10
-11 -7 -11 -10 -2 -10 7 0 10 -5 7 -11 -5 -7 13 -10 56 -8 41 2 64 -1 67 -9 2
-8 9 -9 21 -2 10 5 21 6 25 3 3 -3 6 0 6 8 0 12 2 11 10 -1 7 -10 12 -11 18
-4 4 6 19 10 34 10 17 0 37 10 53 28 14 15 28 25 33 23 9 -6 33 19 25 27 -3 3
2 8 11 12 9 3 14 10 11 14 -3 4 2 11 11 14 8 3 12 10 9 16 -3 5 -1 10 5 10 6
0 9 4 6 9 -3 5 1 11 9 15 8 3 15 12 15 19 0 8 9 26 21 41 14 18 16 26 7 26
-10 0 -9 3 2 10 9 6 10 10 3 10 -12 0 -10 30 2 50 3 6 2 10 -4 10 -5 0 -8 8
-6 18 2 9 4 17 5 17 1 0 3 16 6 34 2 19 10 39 17 43 9 6 9 8 -2 8 -11 0 -11 3
0 17 8 9 13 18 12 20 -8 10 -1 23 13 23 8 0 12 5 9 10 -3 6 -1 10 6 10 8 0 8
4 -1 15 -9 10 -9 15 -1 15 6 0 10 3 10 7 -5 23 15 92 24 86 6 -4 8 0 4 10 -3
10 -2 17 3 17 6 0 10 7 10 15 0 8 5 15 12 15 6 0 9 3 5 6 -6 6 1 17 35 55 10
10 15 19 12 19 -4 0 -1 7 6 15 7 8 9 15 6 15 -4 0 0 7 8 16 19 19 21 34 4 34
-7 0 -4 7 7 16 17 13 18 16 5 24 -12 8 -12 10 -1 10 11 0 11 3 1 15 -10 12
-10 15 0 15 8 0 10 3 7 6 -3 4 -2 16 4 27 9 15 8 18 -2 12 -14 -9 -5 10 19 38
8 9 11 17 7 17 -4 0 0 9 10 20 14 15 15 20 4 20 -11 1 -11 3 1 13 9 7 14 20
12 30 -4 21 5 22 24 2 9 -8 12 -19 9 -25 -4 -6 -1 -9 7 -8 7 2 12 -2 11 -8 -3
-16 25 -13 31 3 3 8 10 12 15 9 5 -3 12 1 15 10 3 8 10 12 16 9 6 -4 7 1 3 12
-6 16 -5 16 10 4 10 -8 17 -9 17 -3 0 6 16 16 35 23 19 7 35 17 35 22 0 5 7 4
15 -3 10 -9 15 -9 15 -1 0 6 9 11 19 11 11 0 23 5 26 10 4 6 11 8 16 5 5 -4 9
-2 9 4 0 5 9 8 20 6 11 -2 20 1 20 6 0 6 8 5 21 -2 17 -9 20 -8 14 1 -6 10 -1
12 19 8 14 -3 29 -2 31 3 3 4 19 4 35 -1 19 -5 28 -5 24 1 -3 5 7 9 23 8 15
-1 36 2 46 6 9 4 17 3 17 -2 0 -5 12 -10 27 -11 15 -1 30 -7 33 -13 4 -6 11
-5 19 5 7 8 10 20 6 26 -3 5 -1 10 5 10 6 0 8 5 4 11 -4 7 -2 10 5 8 7 -3 11
-8 9 -12 -2 -5 5 -13 15 -18 9 -6 15 -14 12 -19 -3 -5 6 -17 20 -28 13 -11 21
-23 17 -27 -4 -4 5 -1 20 6 15 6 25 16 22 20 -3 5 0 9 5 9 6 0 11 6 11 14 0 8
7 16 15 20 10 4 14 14 11 31 -3 14 -1 23 5 20 5 -4 10 -1 10 4 2 12 5 26 9 39
1 4 2 10 1 15 0 4 4 7 10 7 5 0 7 5 4 10 -3 6 -2 10 3 10 5 0 8 11 6 25 -1 14
4 32 12 39 11 11 11 16 1 19 -9 4 -9 6 1 6 7 1 10 6 7 11 -3 6 -1 10 4 10 6 0
11 -5 11 -11 0 -5 5 -7 12 -3 6 4 8 3 4 -4 -3 -6 -1 -14 5 -18 8 -4 7 -9 -2
-15 -11 -7 -11 -9 1 -9 13 0 13 -1 0 -10 -13 -9 -13 -10 0 -10 12 0 12 -2 2
-9 -11 -6 -9 -10 7 -14 15 -4 24 2 35 24 8 16 10 26 4 23 -6 -4 -8 -2 -4 4 10
17 45 10 52 -10 3 -10 12 -18 20 -18 8 0 17 -7 21 -16 5 -13 7 -13 14 -2 7 10
9 11 9 0 0 -7 5 -10 10 -7 6 4 16 3 23 -2 24 -18 66 -14 78 8 8 16 8 20 -1 14
-9 -6 -9 -3 -1 12 6 11 7 23 4 27 -3 3 -1 6 6 6 7 0 10 4 6 9 -3 6 3 14 12 20
10 6 13 11 7 11 -6 0 -11 6 -11 14 0 8 6 12 12 10 6 -3 12 1 13 8 0 12 3 29
15 93 2 11 10 20 18 20 18 0 30 28 16 37 -7 4 -7 11 -1 20 6 7 9 23 8 36 0 12
3 22 7 22 5 0 12 0 17 0 4 0 7 -3 8 -7 0 -5 3 -15 7 -23 3 -8 6 -31 5 -50 0
-55 1 -62 13 -54 8 5 8 1 0 -14 -7 -14 -8 -23 -1 -27 5 -3 10 -15 10 -26 0
-10 5 -19 10 -19 6 0 10 -9 10 -20 0 -11 3 -20 8 -20 4 0 7 -11 7 -25 0 -14
-2 -25 -5 -25 -3 0 -5 -11 -5 -25 0 -14 5 -25 10 -25 6 0 3 -5 -5 -10 -8 -5
-10 -10 -4 -10 13 0 13 -42 -1 -52 -6 -5 -5 -8 2 -8 7 0 12 -11 11 -25 -1 -14
-6 -25 -11 -25 -5 0 -4 -6 2 -14 9 -11 8 -15 -5 -20 -12 -5 -14 -10 -7 -17 7
-7 3 -18 -14 -35 -13 -13 -36 -49 -49 -79 -14 -30 -30 -55 -35 -55 -6 0 -8 -4
-5 -9 3 -4 -3 -19 -14 -31 -11 -12 -17 -27 -14 -31 3 -5 0 -9 -7 -9 -7 0 -9
-3 -6 -7 4 -3 1 -13 -6 -21 -10 -13 -9 -14 3 -7 13 8 13 6 1 -8 -7 -9 -15 -37
-16 -62 -3 -36 0 -45 13 -45 15 0 15 -2 2 -11 -13 -9 -13 -10 0 -6 8 2 17 14
18 28 2 13 8 29 13 34 7 7 8 3 3 -9 -5 -12 -4 -17 3 -13 6 4 9 -3 7 -18 -1
-14 2 -25 7 -25 4 0 6 -7 3 -15 -4 -10 0 -13 15 -10 12 2 21 0 21 -5 0 -5 10
-14 21 -21 17 -9 20 -8 14 3 -5 7 3 3 16 -8 13 -12 30 -19 37 -17 6 3 12 -3
12 -12 0 -9 5 -13 10 -10 6 3 10 0 10 -7 0 -9 14 -15 37 -16 21 -2 39 -5 42
-7 2 -3 10 0 18 6 10 9 13 8 13 -2 0 -12 2 -12 9 -1 4 8 11 13 15 13 3 -1 7
-1 9 0 15 5 45 4 41 -2 -2 -4 0 -10 6 -14 5 -3 10 -1 10 5 0 7 6 10 13 7 7 -3
18 3 24 13 8 11 21 16 38 15 21 -3 25 0 20 13 -3 9 -3 13 1 9 9 -9 44 22 44
40 0 7 5 13 11 13 5 0 8 4 5 9 -3 4 6 13 20 20 14 6 22 16 19 21 -3 6 -1 10 5
10 6 0 9 4 5 9 -3 5 4 25 16 45 11 19 18 40 14 46 -3 5 -1 10 5 10 7 0 9 7 6
15 -3 9 1 18 9 22 12 4 13 9 4 19 -9 11 -9 14 0 14 7 0 9 4 6 10 -3 6 -2 10 3
10 6 0 10 61 9 155 -1 85 0 155 3 155 3 0 6 8 6 18 1 31 9 47 32 70 13 12 19
22 15 22 -4 0 -1 5 7 10 13 8 13 11 1 19 -8 5 -10 14 -6 21 5 8 4 11 -2 7 -6
-4 -13 4 -15 17 -4 18 -1 23 10 19 11 -5 13 -1 7 15 -3 12 -2 22 3 22 13 0 33
50 26 62 -4 7 -2 8 4 4 8 -5 12 5 12 34 0 23 5 51 11 62 9 16 8 19 -3 12 -11
-6 -11 -5 1 9 7 9 10 17 5 17 -5 0 -9 11 -9 25 0 14 2 25 5 25 3 0 6 9 6 20 0
11 -4 20 -9 20 -5 0 -3 8 4 17 12 14 12 16 0 8 -11 -6 -13 -4 -8 8 4 10 1 17
-6 17 -7 0 -4 7 6 14 12 9 14 15 6 18 -8 3 -7 9 4 20 9 8 13 19 9 22 -3 4 -1
10 6 14 6 5 13 17 15 29 1 12 8 27 14 35 10 12 19 37 27 79 2 8 9 28 16 44 7
17 14 33 15 38 2 4 4 10 5 15 1 4 2 10 1 15 0 4 5 7 12 7 8 0 7 4 -3 10 -11 7
-11 10 -2 10 7 0 10 5 7 10 -3 6 -1 10 5 10 6 0 8 5 5 10 -3 6 -3 16 2 23 8
13 14 34 15 57 0 8 5 21 11 28 6 8 5 12 -4 12 -12 0 -12 2 0 9 9 6 12 22 9 50
-2 22 -1 41 2 41 3 0 3 27 0 60 -3 33 -3 60 1 60 3 0 5 11 4 25 -2 14 2 25 8
25 8 0 7 3 -1 9 -15 9 -15 20 0 38 5 7 7 17 3 23 -3 5 -1 10 4 10 6 0 10 3 10
8 -3 19 2 33 10 27 5 -3 12 4 16 15 4 11 15 20 27 20 13 0 18 5 15 14 -4 10 0
14 12 11 13 -2 17 3 16 18 -1 12 -8 22 -16 22 -8 0 -16 3 -19 6 -3 4 -18 9
-35 10 -16 2 -36 11 -43 19 -10 11 -12 11 -6 1 5 -9 3 -12 -5 -7 -16 10 -4 26
20 26 10 0 19 5 19 10 0 6 11 10 24 10 13 0 36 7 52 14 15 8 31 13 35 10 11
-6 22 33 13 47 -4 8 -9 7 -15 -2 -7 -11 -9 -10 -9 4 0 9 -5 17 -11 17 -5 0 -7
-6 -3 -12 4 -7 -2 -5 -13 5 -11 9 -27 17 -37 17 -9 0 -14 5 -11 10 3 6 -2 10
-12 10 -14 0 -15 2 -4 9 8 5 12 19 9 35 -3 14 0 27 6 30 7 3 7 5 -1 5 -9 1 -9
11 2 41 11 30 11 40 2 40 -8 0 -8 3 2 9 8 5 9 11 3 15 -11 7 -11 24 1 44 5 7
3 12 -5 12 -9 0 -9 3 2 10 12 8 12 10 1 10 -10 0 -11 3 -2 13 6 8 8 17 4 21
-4 3 -8 14 -9 24 -2 9 -8 18 -13 20 -6 2 -11 9 -11 15 0 7 -9 23 -20 37 -11
14 -20 33 -20 42 0 9 -9 20 -21 23 -11 4 -18 9 -15 12 3 4 -2 12 -12 19 -14
11 -15 15 -3 26 12 11 13 10 8 -5 -5 -13 -3 -16 6 -10 6 4 22 6 35 4 12 -1 22
2 22 8 0 6 -4 11 -10 11 -5 0 -10 4 -10 9 0 6 -22 32 -50 59 -27 27 -47 52
-44 55 8 8 -21 37 -36 37 -6 0 -9 4 -6 9 4 5 0 12 -6 14 -10 4 -9 8 2 16 8 6
11 11 5 12 -5 0 -1 4 9 8 11 4 39 4 63 1 24 -4 43 -3 43 2 0 5 5 6 10 3 6 -3
10 -1 10 4 0 6 -7 11 -15 11 -8 0 -15 5 -15 10 0 6 -11 10 -25 10 -15 0 -25 6
-25 14 0 8 -9 18 -20 21 -11 4 -18 11 -15 16 4 5 0 9 -7 9 -8 0 -20 9 -28 19
-7 11 -18 17 -24 14 -6 -4 -4 2 4 12 8 10 10 16 3 12 -6 -4 -18 -1 -26 7 -8 8
-17 12 -21 9 -3 -4 -6 -1 -6 5 0 6 -6 9 -12 7 -15 -5 -38 12 -54 39 -5 11 -19
21 -29 22 -11 2 -25 11 -32 20 -9 12 -13 14 -13 4 0 -8 -8 -4 -20 10 -11 13
-23 20 -27 17 -3 -4 -12 1 -20 11 -9 11 -12 11 -7 2 6 -12 4 -13 -7 -2 -7 6
-21 12 -32 12 -10 0 -15 5 -12 10 3 6 -1 10 -9 10 -8 0 -18 10 -21 21 -6 17
-9 19 -16 8 -6 -10 -9 -11 -9 -1 0 6 -9 12 -20 12 -11 0 -20 6 -20 13 0 7 -3
8 -8 2 -8 -12 -32 -13 -49 -2 -8 5 -13 3 -13 -3 0 -7 -7 -8 -17 -3 -22 11 -74
10 -90 0 -7 -5 -13 -5 -13 0 0 4 -4 2 -9 -6 -5 -8 -23 -15 -41 -16 -18 -2 -36
-8 -40 -15 -6 -10 -9 -10 -15 0 -5 8 -10 9 -14 2 -4 -6 -19 -13 -34 -16 -14
-2 -31 -7 -37 -11 -5 -3 -10 -1 -10 5 0 6 -5 8 -12 4 -15 -10 -78 -12 -78 -3
0 3 -7 6 -15 6 -8 0 -15 -5 -15 -11 0 -8 -2 -8 -8 0 -10 15 -42 25 -42 14 0
-11 -32 -1 -42 14 -6 8 -8 8 -8 0 0 -11 -27 -13 -45 -3 -6 3 -23 6 -38 7 -15
1 -36 6 -45 11 -11 6 -24 6 -35 0 -12 -7 -17 -6 -17 1 0 6 -5 8 -12 3 -7 -4
-25 -8 -39 -8 -15 0 -35 -7 -45 -15 -12 -11 -15 -11 -10 -2 7 11 4 11 -15 0
-13 -7 -27 -17 -30 -22 -4 -5 -12 -5 -18 -2 -6 4 -11 2 -11 -4 0 -6 -4 -9 -9
-6 -5 4 -11 1 -13 -4 -2 -6 -12 -13 -23 -15 -11 -2 -22 -4 -25 -6 -3 -1 -12
-3 -20 -3 -8 -1 -14 -7 -13 -13 2 -10 -42 -28 -60 -24 -5 1 -6 -3 -2 -8 3 -6
-6 -13 -20 -17 -14 -3 -25 -10 -25 -15 0 -5 -9 -9 -19 -9 -10 0 -21 -6 -24
-14 -3 -7 -22 -16 -41 -20 -20 -4 -36 -12 -36 -18 0 -5 -7 -8 -15 -4 -8 3 -19
-2 -24 -12 -5 -9 -13 -14 -16 -10 -4 4 -16 -2 -28 -12 -11 -11 -24 -17 -28
-14 -4 2 -10 0 -14 -6 -4 -6 -11 -7 -17 -4 -6 4 -8 3 -5 -2 3 -6 -3 -15 -14
-22 -15 -9 -19 -9 -19 0 0 6 -6 4 -13 -7 -8 -10 -19 -15 -25 -11 -7 4 -12 3
-12 -2 0 -9 -37 -25 -52 -23 -5 1 -8 -3 -8 -8 0 -5 -9 -7 -21 -4 -14 4 -17 9
-10 16 14 14 14 30 0 22 -6 -4 -5 2 3 14 7 12 17 21 22 21 4 0 3 6 -3 14 -9
10 -9 16 -1 21 6 4 9 14 6 22 -3 8 -1 11 4 8 9 -5 15 16 11 38 -5 31 -5 97 0
97 3 0 3 18 -1 40 -4 22 -4 40 0 40 4 0 4 18 0 40 -4 22 -4 40 0 40 13 0 6 34
-9 46 -10 8 -11 13 -2 18 8 5 7 11 -3 21 -8 8 -12 24 -9 35 3 12 0 20 -6 20
-7 0 -10 4 -6 9 3 6 -3 8 -15 6 -11 -2 -22 0 -25 6 -4 5 -11 9 -16 9 -6 0 -7
-4 -4 -10 6 -9 -8 -14 -27 -11 -5 0 -8 -5 -8 -11 0 -9 -4 -8 -10 2 -7 11 -10
11 -10 2 0 -7 -4 -10 -10 -7 -5 3 -10 2 -10 -4 0 -6 -7 -8 -15 -5 -8 4 -15 2
-15 -4 0 -5 -7 -13 -16 -16 -9 -3 -12 -2 -9 4 4 6 -8 2 -27 -8 -18 -10 -39
-17 -47 -14 -9 3 -11 0 -6 -7 5 -8 1 -11 -11 -9 -11 2 -18 -2 -17 -8 1 -6 -5
-11 -13 -12 -7 -1 -21 -3 -29 -4 -8 -1 -15 -5 -15 -10 0 -5 -4 -6 -10 -3 -5 3
-10 0 -10 -7 0 -9 -3 -9 -10 2 -8 13 -10 12 -10 -3 0 -10 -4 -16 -9 -12 -5 3
-17 -3 -27 -12 -10 -10 -20 -18 -23 -18 -3 0 -5 -2 -4 -5 1 -3 -8 -7 -19 -7
-11 -1 -26 -10 -34 -20 -9 -12 -13 -13 -14 -5 0 7 -5 10 -10 7 -6 -4 -8 -10
-5 -15 5 -9 -33 -26 -48 -22 -5 1 -6 -2 -2 -8 3 -5 2 -10 -3 -10 -5 0 -23 -14
-41 -30 -17 -17 -31 -28 -31 -25 0 3 -8 -3 -18 -12 -11 -10 -18 -20 -17 -23 4
-10 -33 -38 -41 -32 -4 4 -4 2 -1 -4 4 -7 -2 -23 -14 -35 -11 -13 -18 -18 -14
-11 3 6 3 12 -2 12 -4 0 -23 14 -40 31 -18 16 -33 24 -33 17 0 -10 -2 -10 -9
1 -5 7 -14 10 -20 7 -6 -4 -11 -2 -11 4 0 6 -4 8 -10 5 -5 -3 -10 -1 -10 5 0
6 -4 8 -10 5 -5 -3 -10 -1 -10 5 0 7 -6 8 -19 0 -14 -7 -23 -6 -33 3 -13 12
-58 18 -58 7 0 -8 -48 -5 -57 3 -3 4 -12 2 -20 -4 -10 -9 -13 -8 -13 2 0 11
-2 11 -10 -1 -8 -12 -10 -12 -10 -1 0 10 -3 11 -14 2 -10 -8 -20 -8 -42 4 -35
18 -48 19 -38 3 6 -9 3 -9 -9 0 -9 8 -21 11 -27 7 -5 -3 -10 -1 -10 4 0 6 -9
11 -20 11 -11 0 -20 5 -20 11 0 5 -4 8 -9 4 -5 -3 -15 0 -23 7 -14 13 -33 20
-55 21 -7 0 -10 4 -8 8 3 4 -2 9 -10 13 -8 3 -15 0 -15 -7 -1 -8 -5 -7 -13 3
-7 9 -21 15 -32 15 -11 0 -26 4 -33 9 -17 12 -52 14 -79 4 -13 -4 -25 -3 -29
3 -4 8 -9 7 -15 -2 -7 -11 -9 -11 -9 -1 0 7 -4 11 -9 8 -5 -3 -11 5 -13 19 -3
14 -1 25 4 25 5 0 5 7 -1 17 -6 11 -6 24 1 36 6 12 6 17 0 13 -11 -7 -25 51
-15 67 3 6 1 7 -5 3 -7 -4 -13 -2 -13 3 -3 26 -4 30 -11 37 -5 4 -8 16 -8 26
0 10 -5 18 -11 18 -8 0 -8 4 1 14 9 12 8 17 -8 27 -11 7 -18 18 -15 25 2 6 0
15 -6 18 -6 4 -7 14 -4 23 4 10 2 14 -4 10 -13 -8 -37 38 -28 54 5 8 4 10 -3
5 -7 -4 -17 3 -24 18 -6 14 -17 26 -25 26 -7 0 -13 9 -13 20 0 11 -4 20 -10
20 -5 0 -10 7 -10 15 0 7 -8 18 -17 24 -10 5 -17 12 -15 15 6 14 0 25 -27 56
-28 33 -74 50 -64 24z m-137 -1827 c0 -6 -3 -7 -7 -4 -3 4 -12 2 -19 -4 -8 -7
-14 -6 -19 2 -4 6 -2 15 5 19 16 10 40 2 40 -13z m2860 -1877 c0 -5 -2 -10 -4
-10 -3 0 -8 5 -11 10 -3 6 -1 10 4 10 6 0 11 -4 11 -10z"/>
</g>
</svg>
